<svg width="23" height="24" viewBox="0 0 23 24" fill="none" xmlns="http://www.w3.org/2000/svg">
<path d="M4.68505 22H17.8032C18.3002 22 18.7768 21.7893 19.1283 21.4142C19.4797 21.0392 19.6772 20.5305 19.6772 20V9.00003C19.6772 8.73481 19.5785 8.48046 19.4027 8.29292C19.227 8.10538 18.9887 8.00003 18.7402 8.00003H15.9291V7.22303C15.9291 4.61403 14.146 2.27803 11.7126 2.02503C11.0613 1.95594 10.4036 2.03313 9.78189 2.25163C9.16019 2.47013 8.58823 2.8251 8.1028 3.2937C7.61738 3.76231 7.22925 4.33417 6.96338 4.9725C6.6975 5.61082 6.55978 6.30148 6.55907 7.00003V8.00003H3.74804C3.49953 8.00003 3.2612 8.10538 3.08548 8.29292C2.90976 8.48046 2.81104 8.73481 2.81104 9.00003V20C2.81104 20.5305 3.00848 21.0392 3.35992 21.4142C3.71137 21.7893 4.18803 22 4.68505 22ZM15.9291 10V12H14.0551V10H15.9291ZM8.43308 7.00003C8.43308 5.34603 9.6943 4.00003 11.2441 4.00003C12.7939 4.00003 14.0551 5.34603 14.0551 7.00003V8.00003H8.43308V7.00003ZM6.55907 10H8.43308V12H6.55907V10Z" fill="#4D4D4D"/>
</svg>
