<svg width="37" height="34" viewBox="0 0 37 34" fill="none" xmlns="http://www.w3.org/2000/svg">
<path d="M36.3573 11.0879C36.3573 10.9972 36.3573 10.9519 36.3573 10.8612C36.3573 10.7706 36.3573 10.6799 36.3573 10.6346C36.3573 10.5893 36.3573 10.5893 36.3573 10.5439C36.2213 9.728 35.5413 9.04806 34.6801 8.91207L9.15945 5.42169L8.70616 3.65383C8.57017 3.10987 8.20753 2.65658 7.75423 2.3846L3.94654 0.254103C2.99462 -0.289853 1.77072 0.0727845 1.22676 1.02471C0.682803 1.97663 1.04544 3.20053 1.99736 3.74449L5.03445 5.42169L9.29544 22.4203L7.02896 24.2335C6.75698 24.4601 6.57566 24.7775 6.57566 25.1401V27.9959C6.57566 28.6305 7.07429 29.1291 7.7089 29.1291L10.9273 29.1744C10.474 29.5824 10.202 30.1717 10.202 30.8516C10.202 32.1209 11.1993 33.1181 12.4685 33.1181C13.7377 33.1181 14.735 32.1209 14.735 30.8516C14.735 30.217 14.463 29.6731 14.0551 29.2198L29.0592 29.4464C28.7419 29.8544 28.5606 30.3077 28.5606 30.8516C28.5606 32.1209 29.5578 33.1181 30.827 33.1181C32.0963 33.1181 33.0935 32.1209 33.0935 30.8516C33.0935 30.353 32.9122 29.8997 32.6402 29.4917L34.5894 29.5371C35.224 29.5371 35.7226 29.0384 35.7226 28.4038C35.7226 27.7692 35.224 27.2706 34.5894 27.2706L8.84214 26.9079V25.7294L10.746 24.2335C10.9273 24.2788 11.1086 24.3242 11.2899 24.3242L31.7336 24.5055C32.6402 24.5055 33.4562 23.8709 33.6828 22.9643L36.3119 11.3599C36.3119 11.3145 36.3119 11.2692 36.3119 11.1786V11.1332C36.3573 11.1332 36.3573 11.0879 36.3573 11.0879ZM30.1471 20.4258L12.8312 20.2445L10.1567 9.50136L31.9603 12.4931L30.1471 20.4258Z" fill="#4D4E50"/>
</svg>
