<svg width="17" height="16" viewBox="0 0 17 16" fill="none" xmlns="http://www.w3.org/2000/svg">
<g clip-path="url(#clip0_382:6767)">
<path d="M10.3335 1.3335H-0.333171C-1.0665 1.3335 -1.65984 1.9335 -1.65984 2.66683L-1.6665 14.6668L1.00016 12.0002H10.3335C11.0668 12.0002 11.6668 11.4002 11.6668 10.6668V2.66683C11.6668 1.9335 11.0668 1.3335 10.3335 1.3335ZM2.3335 9.3335H1.00016V8.00016H2.3335V9.3335ZM2.3335 7.3335H1.00016V6.00016H2.3335V7.3335ZM2.3335 5.3335H1.00016V4.00016H2.3335V5.3335ZM7.00016 9.3335H3.66683V8.00016H7.00016V9.3335ZM9.00016 7.3335H3.66683V6.00016H9.00016V7.3335ZM9.00016 5.3335H3.66683V4.00016H9.00016V5.3335Z" fill="#FCD20C"/>
</g>
<defs>
<clipPath id="clip0_382:6767">
<rect width="15.9667" height="16" fill="white" transform="translate(0.748535)"/>
</clipPath>
</defs>
</svg>
