<svg width="20" height="20" viewBox="0 0 20 20" fill="none" xmlns="http://www.w3.org/2000/svg">
<path d="M10 0C4.46328 0 0 4.46328 0 10C0 15.5367 4.46328 20 10 20C15.5367 20 20 15.5367 20 10C20 4.46328 15.5367 0 10 0ZM15.8757 12.3164C15.8757 14.2373 14.2938 15.8192 12.3729 15.8192H7.68361C5.76271 15.8192 4.18079 14.2373 4.18079 12.3164V7.62712C4.18079 5.70621 5.76271 4.12429 7.68361 4.12429H12.3729C14.2938 4.12429 15.8757 5.70621 15.8757 7.62712V12.3164Z" fill="#FCD20C"/>
<path d="M12.3164 5.19769H7.62713C6.2712 5.19769 5.19775 6.27114 5.19775 7.62707V12.3163C5.19775 13.6723 6.2712 14.7457 7.62713 14.7457H12.3164C13.6723 14.7457 14.7458 13.6723 14.7458 12.3163V7.62707C14.7458 6.32764 13.6723 5.19769 12.3164 5.19769ZM10.0565 12.8813C8.47459 12.8813 7.17516 11.5819 7.17516 9.99995C7.17516 8.41803 8.47459 7.1186 10.0565 7.1186C11.6384 7.1186 12.9379 8.41803 12.9379 9.99995C12.9379 11.5819 11.6384 12.8813 10.0565 12.8813ZM13.1074 7.57057C12.7119 7.57057 12.4294 7.28809 12.4294 6.89261C12.4294 6.49713 12.7119 6.21464 13.1074 6.21464C13.5028 6.21464 13.7853 6.49713 13.7853 6.89261C13.7853 7.28809 13.5028 7.57057 13.1074 7.57057Z" fill="#FCD20C"/>
<path d="M10.0563 8.13562C9.03935 8.13562 8.19189 8.98308 8.19189 10C8.19189 11.017 9.03935 11.8644 10.0563 11.8644C11.0733 11.8644 11.9207 11.017 11.9207 10C11.9207 8.98308 11.0733 8.13562 10.0563 8.13562Z" fill="#FCD20C"/>
</svg>
