<svg width="50" height="50" viewBox="0 0 50 50" fill="none" xmlns="http://www.w3.org/2000/svg">
<path d="M25 0C11.1582 0 0 11.1582 0 25C0 38.8418 11.1582 50 25 50C38.8418 50 50 38.8418 50 25C50 11.1582 38.8418 0 25 0ZM39.6893 30.791C39.6893 35.5932 35.7345 39.548 30.9322 39.548H19.209C14.4068 39.548 10.452 35.5932 10.452 30.791V19.0678C10.452 14.2655 14.4068 10.3107 19.209 10.3107H30.9322C35.7345 10.3107 39.6893 14.2655 39.6893 19.0678V30.791Z" fill="white"/>
<path d="M30.791 12.9944H19.0678C15.678 12.9944 12.9944 15.678 12.9944 19.0678V30.791C12.9944 34.1808 15.678 36.8644 19.0678 36.8644H30.791C34.1808 36.8644 36.8644 34.1808 36.8644 30.791V19.0678C36.8644 15.8192 34.1808 12.9944 30.791 12.9944ZM25.1413 32.2034C21.1865 32.2034 17.9379 28.9548 17.9379 25C17.9379 21.0452 21.1865 17.7966 25.1413 17.7966C29.0961 17.7966 32.3447 21.0452 32.3447 25C32.3447 28.9548 29.0961 32.2034 25.1413 32.2034ZM32.7684 18.9266C31.7797 18.9266 31.0735 18.2204 31.0735 17.2317C31.0735 16.243 31.7797 15.5368 32.7684 15.5368C33.7571 15.5368 34.4633 16.243 34.4633 17.2317C34.4633 18.2204 33.7571 18.9266 32.7684 18.9266Z" fill="white"/>
<path d="M25.1412 20.3391C22.5989 20.3391 20.4802 22.4578 20.4802 25.0001C20.4802 27.5425 22.5989 29.6611 25.1412 29.6611C27.6836 29.6611 29.8022 27.5425 29.8022 25.0001C29.8022 22.4578 27.6836 20.3391 25.1412 20.3391Z" fill="white"/>
</svg>
