<svg width="20" height="20" viewBox="0 0 20 20" fill="none" xmlns="http://www.w3.org/2000/svg">
<path d="M10 0C4.46328 0 0 4.46328 0 10C0 15.5367 4.46328 20 10 20C15.5367 20 20 15.5367 20 10C20 4.46328 15.5367 0 10 0ZM4.91525 4.85876H15.0847C15.3107 4.85876 15.5367 4.91525 15.7062 4.97175C15.6497 4.97175 15.5932 5.02825 15.5932 5.08474L11.0169 10.226C10.7345 10.5085 10.3955 10.678 10 10.678C9.60452 10.678 9.20904 10.5085 8.98305 10.226L4.29379 4.97175C4.46328 4.85876 4.68927 4.85876 4.91525 4.85876ZM16.6667 13.5593C16.6667 14.4068 15.9887 15.1412 15.0847 15.1412H4.91525C4.0678 15.1412 3.33333 14.4633 3.33333 13.5593V6.44068C3.33333 6.15819 3.38983 5.8757 3.55932 5.64972C3.55932 5.64972 3.55932 5.64972 3.55932 5.70622L8.19209 10.9605C8.64407 11.4689 9.26554 11.7514 10 11.7514C10.678 11.7514 11.3559 11.4689 11.8079 10.9605L16.3842 5.81921C16.4407 5.76271 16.4407 5.70621 16.4972 5.64972C16.6667 5.8757 16.7232 6.15819 16.7232 6.49717V13.5593H16.6667Z" fill="#FCD20C"/>
</svg>
