<svg width="50" height="50" viewBox="0 0 50 50" fill="none" xmlns="http://www.w3.org/2000/svg">
<path d="M25 0C11.1582 0 0 11.1582 0 25C0 38.8418 11.1582 50 25 50C38.8418 50 50 38.8418 50 25C50 11.1582 38.8418 0 25 0ZM38.983 16.3842C38.983 16.3842 38.9831 16.6667 38.8418 16.8079C38.1356 17.6554 37.5706 18.3616 36.7232 19.0678C36.5819 19.209 36.4407 19.209 36.4407 19.4915C36.4407 24.0113 35.3107 28.5311 32.0621 31.7797C27.8249 35.8757 21.6102 37.0056 16.1017 35.452C14.9717 35.1695 13.983 34.7458 12.9943 34.1808C12.7119 34.0396 12.2881 33.7571 12.0057 33.6158C11.8644 33.6158 11.8644 33.4746 11.8644 33.4746C11.8644 33.4746 12.0056 33.4746 12.2881 33.4746C13.8418 33.6158 15.3955 33.3333 16.9492 32.9096C17.7966 32.6271 19.4915 32.0622 20.0565 31.3559C19.9153 31.3559 19.6328 31.3559 19.4915 31.2147C17.9379 30.791 15.9604 30.0847 14.9717 27.5424C14.9717 27.4011 14.9717 27.2599 15.113 27.4011C16.3842 27.5424 16.8079 27.4011 17.2316 27.4011C16.9492 27.4011 16.8079 27.2599 16.5254 27.1187C14.6893 26.4124 13.2768 24.5763 12.9943 22.5989C12.9943 22.3164 12.9943 22.1751 12.9943 21.8927C12.9943 21.7514 13.1356 21.7514 13.1356 21.7514C14.1243 22.3164 15.2542 22.3164 15.2542 22.3164C14.9718 22.1751 14.8305 21.8927 14.548 21.7514C12.8531 20.1977 12.2881 16.9492 13.5593 14.9717C13.7006 14.8305 13.7006 14.8305 13.8418 14.9717C16.8079 18.3616 20.6215 20.0565 25 20.6215C25.1412 20.6215 25.1413 20.6215 25.1413 20.4802C25 19.6328 25 18.9266 25.1413 18.0791C25.2825 17.2316 25.7062 16.5254 26.2712 15.8192C26.8361 15.2542 27.4011 14.6893 28.1073 14.2655C28.8136 13.8418 29.661 13.7006 30.3672 13.5593C31.2147 13.5593 32.0621 13.7006 32.7684 13.9831C33.3333 14.2655 33.8983 14.548 34.322 14.9717C34.4633 15.113 34.4633 15.113 34.6045 15.2542C34.6045 15.2542 34.7458 15.3955 34.887 15.2542C36.0169 14.9718 37.1469 14.548 38.1356 13.9831H38.2768V14.1243C38.1356 14.6893 37.7119 15.2542 37.4294 15.8192C37.1469 16.1017 36.5819 16.9492 36.017 17.0904C37.0057 17.0904 37.9943 16.8079 38.983 16.3842Z" fill="white"/>
</svg>
