<svg width="20" height="20" viewBox="0 0 20 20" fill="none" xmlns="http://www.w3.org/2000/svg">
<path d="M10 0C4.46328 0 0 4.46328 0 10C0 15.5367 4.46328 20 10 20C15.5367 20 20 15.5367 20 10C20 4.46328 15.5367 0 10 0ZM15.5932 6.55367C15.5932 6.55367 15.5932 6.66667 15.5367 6.72316C15.2542 7.06215 15.0283 7.34463 14.6893 7.62712C14.6328 7.68362 14.5763 7.68362 14.5763 7.79661C14.5763 9.60452 14.1243 11.4124 12.8249 12.7119C11.1299 14.3503 8.64407 14.8023 6.44068 14.1808C5.9887 14.0678 5.59322 13.8983 5.19774 13.6723C5.08475 13.6158 4.91526 13.5028 4.80226 13.4463C4.74576 13.4463 4.74576 13.3898 4.74576 13.3898C4.74576 13.3898 4.80226 13.3898 4.91525 13.3898C5.53672 13.4463 6.15819 13.3333 6.77966 13.1638C7.11865 13.0508 7.79661 12.8249 8.0226 12.5424C7.9661 12.5424 7.85311 12.5424 7.79661 12.4859C7.17514 12.3164 6.38418 12.0339 5.9887 11.0169C5.9887 10.9605 5.9887 10.904 6.0452 10.9605C6.55367 11.0169 6.72316 10.9605 6.89266 10.9605C6.77966 10.9605 6.72316 10.904 6.61017 10.8475C5.87571 10.565 5.31073 9.83051 5.19774 9.03955C5.19774 8.92655 5.19774 8.87006 5.19774 8.75706C5.19774 8.70056 5.25424 8.70057 5.25424 8.70057C5.64972 8.92655 6.1017 8.92656 6.1017 8.92656C5.9887 8.87006 5.93221 8.75706 5.81921 8.70057C5.14125 8.0791 4.91525 6.77966 5.42372 5.9887C5.48022 5.9322 5.48023 5.9322 5.53673 5.9887C6.72317 7.34463 8.24859 8.0226 10 8.24859C10.0565 8.24859 10.0565 8.24859 10.0565 8.19209C10 7.85311 10 7.57062 10.0565 7.23164C10.113 6.89266 10.2825 6.61017 10.5085 6.32769C10.7345 6.1017 10.9605 5.87571 11.2429 5.70621C11.5254 5.53672 11.8644 5.48023 12.1469 5.42373C12.4859 5.42373 12.8249 5.48023 13.1073 5.59322C13.3333 5.70622 13.5593 5.81921 13.7288 5.9887C13.7853 6.0452 13.7853 6.0452 13.8418 6.1017C13.8418 6.1017 13.8983 6.15819 13.9548 6.1017C14.4068 5.9887 14.8588 5.81921 15.2542 5.59322H15.3107V5.64972C15.2542 5.87571 15.0847 6.1017 14.9718 6.32769C14.8588 6.44068 14.6328 6.77966 14.4068 6.83616C14.8023 6.83616 15.1977 6.72316 15.5932 6.55367Z" fill="#FCD20C"/>
</svg>
